<svg width="49" height="61" viewBox="0 0 49 61" fill="none" xmlns="http://www.w3.org/2000/svg">
<path d="M38.5 26.8V24.5C38.5 23.4 39.4 22.5 40.5 22.5V20.5C38.8 20.5 37.4 21.5 36.8 23.1C25.7 17.8 25.5 0.7 25.5 0.5H23.5C23.5 0.7 23.4 17.8 12.2 23.1C11.6 21.5 10.2 20.5 8.5 20.5V22.5C9.6 22.5 10.5 23.4 10.5 24.5V26.8L0.5 30.8V33.5H4.9L10.5 44.7V49.5H12.5V60.5H14.5V49.5H34.5V60.5H36.5V49.5H38.5V44.7L44.1 33.5H48.5V30.8L38.5 26.8ZM36.5 26.5H32.5V24.5H35.1C35.5 24.7 36 25 36.5 25.2V26.5ZM23.5 24.5V26.5H18.5V24.5H23.5ZM25.7 12.5C25.9 13.2 26.2 13.9 26.5 14.5H22.5C22.8 13.9 23 13.2 23.3 12.5H25.7ZM25.5 18.5V16.5H27.5C27.9 17.2 28.3 17.9 28.7 18.5H25.5ZM23.5 16.5V18.5H20.3C20.7 17.9 21.1 17.2 21.5 16.5H23.5ZM27.5 20.5V22.5H21.5V20.5H27.5ZM25.5 24.5H30.5V26.5H25.5V24.5ZM32.2 22.5H29.5V20.5H30.2C30.8 21.2 31.5 21.9 32.2 22.5ZM25 10.5H23.9C24.1 9.8 24.3 9.1 24.4 8.4C24.7 9.1 24.8 9.8 25 10.5ZM18.8 20.5H19.5V22.5H16.8C17.5 21.9 18.2 21.2 18.8 20.5ZM12.5 25.2C13 25 13.4 24.8 13.9 24.5H16.5V26.5H12.5V25.2ZM10.5 40.3L7.1 33.5H10.5V40.3ZM36.5 47.5H12.5V33.5H36.5V47.5ZM38.5 40.3V33.5H41.9L38.5 40.3ZM4.2 31.5L11.7 28.5H37.3L44.8 31.5H4.2Z" fill="black" stroke="black"/>
<path d="M22.5 45.5H16.5V35.5H22.5V45.5ZM18.5 43.5H20.5V37.5H18.5V43.5Z" fill="black" stroke="black"/>
<path d="M32.5 45.5H26.5V35.5H32.5V45.5ZM28.5 43.5H30.5V37.5H28.5V43.5Z" fill="black" stroke="black"/>
</svg>
