<svg width="1664" height="360" viewBox="0 0 1664 360" fill="none" xmlns="http://www.w3.org/2000/svg">
<path d="M127.171 312.147V138.615H164.949V216.179C173.869 212.498 182.177 207.853 189.872 202.244C197.742 196.459 204.738 190.061 210.86 183.05C216.981 176.039 222.228 168.764 226.601 161.227C230.973 153.69 234.121 146.152 236.045 138.615H279.332C276.884 147.204 273.124 155.793 268.052 164.382C263.154 172.796 257.295 180.771 250.474 188.308C243.653 195.846 236.395 202.594 228.699 208.554C221.179 214.338 213.571 218.896 205.875 222.226V226.17C213.921 226.17 221.091 227.134 227.388 229.062C233.859 230.815 239.543 233.707 244.44 237.739C249.512 241.595 253.972 246.415 257.82 252.2C261.668 257.984 265.078 264.908 268.052 272.971L281.956 312.147H239.193L230.011 280.596C227.563 272.007 224.327 265.171 220.304 260.088C216.282 254.829 211.122 251.06 204.826 248.782C198.529 246.328 190.309 245.101 180.165 245.101H164.949V312.147H127.171Z" fill="#001B95"/>
<path d="M305.442 312.147V124.154H343.482V167.274C343.482 170.78 343.308 174.461 342.958 178.317C342.783 182.174 342.346 186.117 341.646 190.149C341.121 194.005 340.509 197.949 339.81 201.981C339.285 206.012 338.673 210.044 337.973 214.075H343.745C346.193 205.136 349.254 197.423 352.927 190.938C356.775 184.452 361.672 179.457 367.618 175.951C373.565 172.27 381.086 170.429 390.18 170.429C406.271 170.429 418.339 176.126 426.384 187.52C434.43 198.738 438.452 216.003 438.452 239.316V312.147H400.412V245.101C400.412 230.377 398.226 219.509 393.853 212.498C389.656 205.311 383.272 201.718 374.702 201.718C367.706 201.718 361.934 203.821 357.387 208.028C352.84 212.235 349.429 217.932 347.155 225.118C344.882 232.13 343.57 240.018 343.22 248.782V312.147H305.442Z" fill="#001B95"/>
<path d="M503.215 315.828C495.52 315.828 488.699 314.338 482.752 311.358C476.805 308.203 472.171 303.734 468.848 297.949C465.525 292.165 463.863 284.978 463.863 276.389C463.863 268.852 465.262 262.542 468.061 257.458C471.034 252.375 475.319 248.256 480.916 245.101C486.512 241.946 493.421 239.316 501.641 237.213C509.861 235.11 519.218 233.269 529.712 231.691C535.309 230.815 539.856 230.026 543.354 229.325C547.027 228.449 549.738 227.134 551.487 225.381C553.236 223.453 554.11 220.736 554.11 217.23C554.11 212.323 552.361 208.116 548.864 204.61C545.366 201.104 539.856 199.351 532.336 199.351C527.264 199.351 522.541 200.228 518.169 201.981C513.971 203.734 510.298 206.363 507.15 209.869C504.177 213.374 501.991 217.844 500.592 223.278L467.274 213.024C469.372 205.837 472.346 199.614 476.193 194.356C480.216 189.097 485.026 184.715 490.622 181.209C496.219 177.528 502.603 174.812 509.774 173.059C516.945 171.306 524.728 170.429 533.123 170.429C546.59 170.429 557.521 172.62 565.916 177.003C574.486 181.209 580.87 187.87 585.067 196.985C589.265 205.925 591.364 217.493 591.364 231.691V255.355C591.364 261.49 591.451 267.713 591.626 274.023C591.976 280.333 592.326 286.731 592.676 293.216C593.2 299.527 593.725 305.837 594.25 312.147H560.931C560.232 307.765 559.532 302.769 558.833 297.16C558.308 291.376 557.871 285.592 557.521 279.807H552.799C550.35 286.468 546.852 292.515 542.305 297.949C537.757 303.383 532.161 307.765 525.515 311.096C519.043 314.251 511.61 315.828 503.215 315.828ZM519.218 288.484C522.541 288.484 525.864 287.87 529.187 286.643C532.685 285.416 536.009 283.751 539.157 281.648C542.48 279.369 545.453 276.564 548.076 273.234C550.875 269.904 553.149 266.135 554.898 261.928L554.373 239.842L560.407 241.157C557.259 243.436 553.586 245.276 549.388 246.678C545.191 247.905 540.818 248.869 536.271 249.571C531.898 250.272 527.526 251.06 523.154 251.937C518.781 252.813 514.846 253.953 511.348 255.355C508.025 256.757 505.314 258.685 503.215 261.139C501.291 263.418 500.329 266.661 500.329 270.868C500.329 276.301 502.078 280.596 505.576 283.751C509.074 286.906 513.622 288.484 519.218 288.484Z" fill="#001B95"/>
<path d="M624.409 312.147V174.11H655.366L655.104 215.39H660.351C662.625 205.399 665.86 197.073 670.058 190.412C674.255 183.751 679.502 178.755 685.799 175.425C692.27 172.095 699.878 170.429 708.623 170.429C724.539 170.429 736.606 176.039 744.827 187.257C753.222 198.475 757.419 216.091 757.419 240.105V312.147H719.379V244.312C719.379 229.588 717.193 218.896 712.82 212.235C708.623 205.399 702.414 201.981 694.194 201.981C687.198 201.981 681.339 204.172 676.616 208.554C671.894 212.936 668.309 218.72 665.86 225.907C663.586 232.918 662.362 240.806 662.187 249.571V312.147H624.409Z" fill="#001B95"/>
<path d="M852.213 312.147V138.615H889.991V216.179C898.911 212.498 907.218 207.853 914.914 202.244C922.784 196.459 929.78 190.061 935.902 183.05C942.023 176.039 947.27 168.764 951.642 161.227C956.015 153.69 959.163 146.152 961.087 138.615H1004.37C1001.93 147.204 998.165 155.793 993.093 164.382C988.196 172.796 982.337 180.771 975.516 188.308C968.695 195.846 961.437 202.594 953.741 208.554C946.221 214.338 938.612 218.896 930.917 222.226V226.17C938.962 226.17 946.133 227.134 952.429 229.062C958.901 230.815 964.585 233.707 969.482 237.739C974.554 241.595 979.014 246.415 982.862 252.2C986.71 257.984 990.12 264.908 993.093 272.971L1007 312.147H964.235L955.053 280.596C952.604 272.007 949.369 265.171 945.346 260.088C941.323 254.829 936.164 251.06 929.868 248.782C923.571 246.328 915.351 245.101 905.207 245.101H889.991V312.147H852.213Z" fill="#001B95"/>
<path d="M1030.48 312.147V124.154H1067.74V312.147H1030.48Z" fill="#001B95"/>
<path d="M1149.17 315.828C1133.08 315.828 1120.93 310.394 1112.71 299.527C1104.66 288.484 1100.64 271.744 1100.64 249.308V174.11H1138.42V244.575C1138.42 258.072 1140.43 268.151 1144.45 274.812C1148.47 281.297 1154.6 284.54 1162.82 284.54C1167.71 284.54 1172 283.313 1175.67 280.859C1179.34 278.405 1182.49 274.987 1185.12 270.605C1187.74 266.223 1189.66 261.052 1190.89 255.092C1192.29 249.132 1193.07 242.734 1193.25 235.898V174.11H1231.03V312.147H1200.59L1200.33 269.027H1195.61C1192.99 279.895 1189.66 288.834 1185.64 295.846C1181.79 302.682 1176.81 307.765 1170.69 311.096C1164.74 314.251 1157.57 315.828 1149.17 315.828Z" fill="#001B95"/>
<path d="M1297.94 315.828C1290.25 315.828 1283.43 314.338 1277.48 311.358C1271.53 308.203 1266.9 303.734 1263.58 297.949C1260.25 292.165 1258.59 284.978 1258.59 276.389C1258.59 268.852 1259.99 262.542 1262.79 257.458C1265.76 252.375 1270.05 248.256 1275.64 245.101C1281.24 241.946 1288.15 239.316 1296.37 237.213C1304.59 235.11 1313.95 233.269 1324.44 231.691C1330.04 230.815 1334.58 230.026 1338.08 229.325C1341.75 228.449 1344.47 227.134 1346.21 225.381C1347.96 223.453 1348.84 220.736 1348.84 217.23C1348.84 212.323 1347.09 208.116 1343.59 204.61C1340.09 201.104 1334.58 199.351 1327.06 199.351C1321.99 199.351 1317.27 200.228 1312.9 201.981C1308.7 203.734 1305.03 206.363 1301.88 209.869C1298.9 213.374 1296.72 217.844 1295.32 223.278L1262 213.024C1264.1 205.837 1267.07 199.614 1270.92 194.356C1274.94 189.097 1279.75 184.715 1285.35 181.209C1290.95 177.528 1297.33 174.812 1304.5 173.059C1311.67 171.306 1319.46 170.429 1327.85 170.429C1341.32 170.429 1352.25 172.62 1360.64 177.003C1369.21 181.209 1375.6 187.87 1379.8 196.985C1383.99 205.925 1386.09 217.493 1386.09 231.691V255.355C1386.09 261.49 1386.18 267.713 1386.35 274.023C1386.7 280.333 1387.05 286.731 1387.4 293.216C1387.93 299.527 1388.45 305.837 1388.98 312.147H1355.66C1354.96 307.765 1354.26 302.769 1353.56 297.16C1353.04 291.376 1352.6 285.592 1352.25 279.807H1347.53C1345.08 286.468 1341.58 292.515 1337.03 297.949C1332.49 303.383 1326.89 307.765 1320.24 311.096C1313.77 314.251 1306.34 315.828 1297.94 315.828ZM1313.95 288.484C1317.27 288.484 1320.59 287.87 1323.92 286.643C1327.41 285.416 1330.74 283.751 1333.88 281.648C1337.21 279.369 1340.18 276.564 1342.8 273.234C1345.6 269.904 1347.88 266.135 1349.63 261.928L1349.1 239.842L1355.13 241.157C1351.99 243.436 1348.31 245.276 1344.12 246.678C1339.92 247.905 1335.55 248.869 1331 249.571C1326.63 250.272 1322.25 251.06 1317.88 251.937C1313.51 252.813 1309.57 253.953 1306.08 255.355C1302.75 256.757 1300.04 258.685 1297.94 261.139C1296.02 263.418 1295.06 266.661 1295.06 270.868C1295.06 276.301 1296.81 280.596 1300.3 283.751C1303.8 286.906 1308.35 288.484 1313.95 288.484Z" fill="#001B95"/>
<path d="M1470.83 360C1463.84 360 1456.66 359.299 1449.32 357.897C1442.15 356.67 1435.33 354.654 1428.86 351.849C1422.56 349.22 1417.14 345.802 1412.59 341.595L1423.35 309.255C1428.94 315.039 1435.94 319.334 1444.33 322.138C1452.73 325.118 1461.04 326.608 1469.26 326.608C1478.53 326.608 1486.22 324.68 1492.34 320.824C1498.64 317.143 1503.36 311.446 1506.51 303.734C1509.83 295.846 1511.76 286.03 1512.28 274.286L1513.86 250.359H1508.09C1506.34 261.928 1503.45 271.393 1499.43 278.755C1495.58 286.117 1490.6 291.551 1484.47 295.057C1478.53 298.387 1471.44 300.053 1463.22 300.053C1453.25 300.053 1444.86 297.511 1438.04 292.428C1431.22 287.344 1426.06 279.72 1422.56 269.553C1419.24 259.386 1417.58 246.854 1417.58 231.954V174.11H1455.35V222.752C1455.35 239.053 1457.19 250.798 1460.86 257.984C1464.54 265.171 1470.13 268.764 1477.65 268.764C1481.68 268.764 1485.35 267.713 1488.67 265.609C1491.99 263.33 1494.79 260.088 1497.07 255.881C1499.52 251.674 1501.35 246.591 1502.58 240.631C1503.97 234.496 1504.67 227.572 1504.67 219.86V174.11H1542.45V275.6C1542.45 286.643 1541.49 296.722 1539.57 305.837C1537.64 314.776 1534.76 322.577 1530.91 329.237C1527.24 336.074 1522.51 341.77 1516.74 346.328C1510.97 350.885 1504.24 354.303 1496.54 356.582C1489.02 358.861 1480.45 360 1470.83 360Z" fill="#001B95"/>
<path d="M237.285 313.62V175.583C237.285 156.196 232.388 141.963 222.593 132.883C212.799 123.558 198.108 118.896 178.519 118.896C160.644 118.896 146.81 122.699 137.016 130.307C127.221 137.914 122.569 149.202 123.059 164.172L161.624 180.736C163.583 181.718 164.929 182.699 165.664 183.681C166.399 184.663 166.766 186.012 166.766 187.73C166.766 190.429 165.664 192.515 163.46 193.988C151.952 194.233 143.015 197.546 136.648 203.926C130.527 210.307 127.466 219.386 127.466 231.166V312.147H113.142V233.006C113.142 219.264 116.08 208.589 121.957 200.982C127.833 193.374 137.016 188.589 149.503 186.626V185.521L109.102 170.798C108.857 168.589 108.612 166.503 108.367 164.54C108.122 162.331 108 160.368 108 158.65C108 142.945 114.489 130.675 127.466 121.84C140.444 113.006 157.828 108.589 179.621 108.589C202.882 108.589 220.634 113.865 232.877 124.417C245.365 134.969 251.609 150.675 251.609 171.534V301.84L242.059 313.62H237.285Z" fill="#E22B02"/>
<path d="M191.139 79.8773C187.956 79.8773 184.405 79.7546 180.487 79.5092C176.57 79.2638 172.774 78.8957 169.101 78.4049C165.184 77.9141 161.633 77.3006 158.45 76.5644V69.9386C169.469 69.4479 178.039 66.5031 184.16 61.1043C190.037 55.7055 193.587 50.0613 194.812 44.1718L193.342 43.4356C190.404 45.6442 187.588 47.362 184.895 48.589C181.957 49.5706 178.773 50.0614 175.345 50.0614C167.51 50.0614 161.144 47.8528 156.246 43.4356C151.104 39.0184 148.533 33.0061 148.533 25.3988C148.533 17.3006 151.227 11.0429 156.614 6.62577C162.001 2.20859 168.857 0 177.182 0C186.976 0 194.322 2.94478 199.219 8.83435C204.116 14.4785 206.565 22.0859 206.565 31.6564C206.565 39.0184 205.218 46.0123 202.525 52.638C199.586 59.2638 195.669 64.2945 190.771 67.7301L191.139 69.5705C204.851 69.5705 217.094 67.2393 227.867 62.5767C238.396 57.6687 246.599 50.7976 252.475 41.9632C258.352 32.8834 260.923 22.454 260.188 10.6748C265.33 10.6748 268.881 11.6564 270.84 13.6196C272.554 15.5828 273.411 18.8957 273.411 23.5583C273.411 32.1472 270.35 40.7362 264.229 49.3251C257.862 57.9141 248.558 65.1534 236.315 71.0429C224.072 76.9325 209.013 79.8773 191.139 79.8773ZM176.08 40.8589C180.977 40.8589 185.017 39.5092 188.2 36.8098C191.384 33.865 192.975 29.9386 192.975 25.0307C192.975 20.1227 191.384 16.319 188.2 13.6196C185.017 10.6749 180.977 9.20247 176.08 9.20247C171.183 9.20247 167.265 10.6749 164.327 13.6196C161.144 16.319 159.552 20.1227 159.552 25.0307C159.552 29.9386 161.144 33.865 164.327 36.8098C167.265 39.5092 171.183 40.8589 176.08 40.8589Z" fill="#E22B02"/>
<path d="M432.36 313.62V167.117C432.36 155.583 430.278 146.258 426.116 139.141C422.198 132.025 416.444 126.994 408.853 124.049C401.508 120.859 392.448 119.264 381.674 119.264C366.983 119.264 355.107 122.699 346.047 129.571C337.232 136.442 332.825 147.607 332.825 163.067C327.683 163.558 324.01 162.822 321.806 160.859C319.603 158.896 318.501 155.583 318.501 150.92C318.501 143.313 320.827 136.319 325.479 129.939C330.132 123.558 337.11 118.405 346.415 114.479C355.719 110.552 367.472 108.589 381.674 108.589C402.487 108.589 418.525 113.252 429.789 122.577C441.052 131.902 446.684 146.748 446.684 167.117V301.84L437.134 313.62H432.36Z" fill="#E22B02"/>
<path d="M550.141 313.252V159.018L550.508 159.386C548.304 161.595 545.611 163.313 542.428 164.54C539.49 165.767 536.062 166.38 532.144 166.38C523.574 166.38 516.473 163.804 510.841 158.65C505.209 153.497 502.394 146.38 502.394 137.301C502.394 128.221 505.209 121.227 510.841 116.319C516.473 111.411 524.064 108.957 533.613 108.957C543.162 108.957 550.631 111.411 556.017 116.319C561.649 121.227 564.465 128.466 564.465 138.037V294.479H565.567C573.402 285.89 581.727 277.669 590.542 269.816C599.602 261.963 609.396 255.092 619.925 249.202C630.699 243.313 641.962 239.386 653.716 237.423V121.84L663.632 110.061H668.407V236.687C682.854 236.687 693.995 240.245 701.83 247.362C709.665 254.479 713.583 264.54 713.583 277.546C713.583 283.436 712.481 289.202 710.278 294.847C708.319 300.491 705.013 305.153 700.361 308.834C695.709 312.27 689.465 313.988 681.629 313.988C673.304 313.988 666.571 311.656 661.429 306.994C656.287 302.086 653.716 294.724 653.716 284.908V248.466C642.207 250.184 631.066 254.479 620.292 261.35C609.764 267.975 599.847 275.951 590.542 285.276C581.238 294.601 572.545 303.926 564.465 313.252H550.141ZM532.878 156.81C545.856 156.81 552.345 150.429 552.345 137.669C552.345 124.908 545.978 118.528 533.246 118.528C527.124 118.528 522.35 120.245 518.922 123.681C515.494 126.871 513.78 131.534 513.78 137.669C513.78 143.804 515.371 148.589 518.554 152.025C521.982 155.215 526.757 156.81 532.878 156.81ZM682.731 304.417C689.342 304.417 694.117 301.84 697.055 296.687C700.238 291.288 701.83 284.908 701.83 277.546C701.83 267.239 699.014 259.632 693.382 254.724C687.996 249.571 679.67 246.994 668.407 246.994V287.117C668.407 292.27 669.631 296.442 672.08 299.632C674.528 302.822 678.079 304.417 682.731 304.417Z" fill="#E22B02"/>
<path d="M900.437 313.62V175.583C900.437 156.196 895.54 141.963 885.746 132.883C875.951 123.558 861.26 118.896 841.671 118.896C823.797 118.896 809.962 122.699 800.168 130.307C790.374 137.914 785.721 149.202 786.211 164.172L824.776 180.736C826.735 181.718 828.082 182.699 828.816 183.681C829.551 184.663 829.918 186.012 829.918 187.73C829.918 190.429 828.816 192.515 826.613 193.988C815.104 194.233 806.167 197.546 799.801 203.926C793.679 210.307 790.619 219.386 790.619 231.166V312.147H776.294V233.006C776.294 219.264 779.233 208.589 785.109 200.982C790.986 193.374 800.168 188.589 812.656 186.626V185.521L772.254 170.798C772.009 168.589 771.765 166.503 771.52 164.54C771.275 162.331 771.152 160.368 771.152 158.65C771.152 142.945 777.641 130.675 790.619 121.84C803.596 113.006 820.981 108.589 842.773 108.589C866.035 108.589 883.787 113.865 896.03 124.417C908.517 134.969 914.761 150.675 914.761 171.534V301.84L905.212 313.62H900.437Z" fill="#E22B02"/>
<path d="M1025.73 313.988C1016.18 313.988 1008.71 311.411 1003.32 306.258C997.936 300.859 995.243 293.252 995.243 283.436V245.89C995.243 231.166 997.569 219.386 1002.22 210.552C1007.12 201.472 1013.61 194.847 1021.69 190.675C1030.01 186.258 1039.32 184.049 1049.6 184.049C1060.13 184.049 1069.8 186.258 1078.62 190.675C1087.43 194.847 1094.9 200.491 1101.02 207.607C1107.39 214.724 1112.04 222.209 1114.98 230.061L1116.08 229.693V168.957C1116.08 152.025 1111.18 139.509 1101.39 131.411C1091.59 123.067 1077.39 118.896 1058.78 118.896C1041.89 118.896 1028.67 122.454 1019.12 129.571C1009.81 136.687 1005.16 148.098 1005.16 163.804C999.773 164.049 995.977 163.313 993.774 161.595C991.57 159.632 990.468 156.196 990.468 151.288C990.468 143.926 992.917 136.933 997.814 130.307C1002.71 123.681 1010.18 118.405 1020.22 114.479C1030.5 110.307 1043.23 108.221 1058.42 108.221C1082.17 108.221 1100.04 113.252 1112.04 123.313C1124.28 133.374 1130.4 148.712 1130.4 169.325V301.84L1120.85 313.62H1116.08V283.067C1116.08 265.399 1113.26 249.939 1107.63 236.687C1102 223.436 1094.29 213.129 1084.49 205.767C1074.7 198.405 1063.44 194.724 1050.7 194.724C1037.97 194.724 1027.93 198.896 1020.59 207.239C1013.24 215.337 1009.57 226.994 1009.57 242.209V262.822C1011.28 261.35 1013.61 260.123 1016.55 259.141C1019.48 257.914 1023.03 257.301 1027.2 257.301C1035.77 257.301 1042.87 259.755 1048.5 264.663C1054.13 269.571 1056.95 276.564 1056.95 285.644C1056.95 294.233 1054.13 301.104 1048.5 306.258C1042.87 311.411 1035.28 313.988 1025.73 313.988ZM1026.09 304.785C1032.22 304.785 1036.87 303.19 1040.05 300C1043.48 296.564 1045.19 291.779 1045.19 285.644C1045.19 272.883 1038.95 266.503 1026.46 266.503C1013.73 266.503 1007.36 272.883 1007.36 285.644C1007.36 298.405 1013.61 304.785 1026.09 304.785Z" fill="#E22B02"/>
<path d="M1070.11 79.8773C1066.93 79.8773 1063.38 79.7546 1059.46 79.5092C1055.55 79.2638 1051.75 78.8957 1048.08 78.4049C1044.16 77.9141 1040.61 77.3006 1037.43 76.5644V69.9386C1048.44 69.4479 1057.01 66.5031 1063.14 61.1043C1069.01 55.7055 1072.56 50.0613 1073.79 44.1718L1072.32 43.4356C1069.38 45.6442 1066.56 47.362 1063.87 48.589C1060.93 49.5706 1057.75 50.0614 1054.32 50.0614C1046.49 50.0614 1040.12 47.8528 1035.22 43.4356C1030.08 39.0184 1027.51 33.0061 1027.51 25.3988C1027.51 17.3006 1030.2 11.0429 1035.59 6.62577C1040.98 2.20859 1047.83 0 1056.16 0C1065.95 0 1073.3 2.94478 1078.2 8.83435C1083.09 14.4785 1085.54 22.0859 1085.54 31.6564C1085.54 39.0184 1084.19 46.0123 1081.5 52.638C1078.56 59.2638 1074.64 64.2945 1069.75 67.7301L1070.11 69.5705C1083.83 69.5705 1096.07 67.2393 1106.84 62.5767C1117.37 57.6687 1125.57 50.7976 1131.45 41.9632C1137.33 32.8834 1139.9 22.454 1139.16 10.6748C1144.31 10.6748 1147.86 11.6564 1149.82 13.6196C1151.53 15.5828 1152.39 18.8957 1152.39 23.5583C1152.39 32.1472 1149.33 40.7362 1143.2 49.3251C1136.84 57.9141 1127.53 65.1534 1115.29 71.0429C1103.05 76.9325 1087.99 79.8773 1070.11 79.8773ZM1055.06 40.8589C1059.95 40.8589 1063.99 39.5092 1067.18 36.8098C1070.36 33.865 1071.95 29.9386 1071.95 25.0307C1071.95 20.1227 1070.36 16.319 1067.18 13.6196C1063.99 10.6749 1059.95 9.20247 1055.06 9.20247C1050.16 9.20247 1046.24 10.6749 1043.3 13.6196C1040.12 16.319 1038.53 20.1227 1038.53 25.0307C1038.53 29.9386 1040.12 33.865 1043.3 36.8098C1046.24 39.5092 1050.16 40.8589 1055.06 40.8589Z" fill="#E22B02"/>
<path d="M1303.25 313.988C1293.45 313.988 1285.74 311.411 1280.11 306.258C1274.48 301.104 1271.66 294.233 1271.66 285.644C1271.66 276.564 1274.6 269.571 1280.48 264.663C1286.35 259.755 1293.33 257.301 1301.41 257.301C1305.57 257.301 1309.25 257.914 1312.43 259.141C1315.61 260.368 1318.06 261.84 1319.77 263.558L1319.41 264.294V168.957C1319.41 157.178 1317.08 147.73 1312.43 140.613C1308.02 133.252 1301.9 127.853 1294.06 124.417C1286.23 120.982 1277.05 119.264 1266.52 119.264C1258.44 119.264 1250.72 120.859 1243.38 124.049C1236.03 126.994 1230.03 131.779 1225.38 138.405C1220.73 144.785 1218.4 153.129 1218.4 163.436C1213.26 163.681 1209.47 162.945 1207.02 161.227C1204.81 159.264 1203.71 155.706 1203.71 150.552C1203.71 143.19 1206.28 136.319 1211.43 129.939C1216.81 123.558 1224.16 118.405 1233.46 114.479C1243.01 110.552 1253.79 108.589 1265.78 108.589C1287.58 108.589 1304.35 113.62 1316.1 123.681C1327.85 133.497 1333.73 148.466 1333.73 168.589V283.804C1333.73 293.62 1331.04 301.104 1325.65 306.258C1320.26 311.411 1312.8 313.988 1303.25 313.988ZM1302.51 304.785C1308.88 304.785 1313.65 303.19 1316.84 300C1320.02 296.564 1321.61 291.779 1321.61 285.644C1321.61 279.755 1320.02 275.092 1316.84 271.656C1313.65 268.221 1308.88 266.503 1302.51 266.503C1296.15 266.503 1291.37 268.221 1288.19 271.656C1285 275.092 1283.41 279.755 1283.41 285.644C1283.41 291.779 1285 296.564 1288.19 300C1291.62 303.19 1296.39 304.785 1302.51 304.785Z" fill="#E22B02"/>
<path d="M1485.11 315.828C1461.85 315.828 1444.22 310.92 1432.22 301.104C1420.23 291.043 1414.23 276.074 1414.23 256.196C1414.23 240.982 1417.53 229.325 1424.14 221.227C1430.76 213.129 1439.33 208.466 1449.85 207.239V206.135C1442.75 203.19 1436.39 199.018 1430.76 193.62C1425.37 188.221 1421.08 181.718 1417.9 174.11C1414.72 166.258 1413.13 157.791 1413.13 148.712C1413.13 135.951 1416.19 126.135 1422.31 119.264C1428.43 112.147 1437.12 108.589 1448.39 108.589C1458.42 108.589 1466.14 111.288 1471.52 116.687C1476.91 122.086 1479.6 129.08 1479.6 137.669C1479.6 146.748 1476.91 153.865 1471.52 159.018C1466.14 164.172 1458.91 166.748 1449.85 166.748C1445.45 166.748 1441.53 166.135 1438.1 164.908C1434.67 163.436 1431.73 161.35 1429.29 158.65L1428.18 159.386C1428.92 164.785 1431.25 170.92 1435.16 177.791C1439.08 184.663 1444.59 190.552 1451.69 195.46C1458.79 200.123 1466.99 202.454 1476.3 202.454H1490.62V212.393H1476.3C1459.16 212.393 1447.16 215.951 1440.3 223.067C1433.45 230.184 1430.02 241.104 1430.02 255.828C1430.02 265.153 1431.49 273.497 1434.43 280.859C1437.37 288.221 1442.75 294.11 1450.59 298.528C1458.67 302.945 1470.05 305.153 1484.75 305.153C1503.85 305.153 1518.05 300.859 1527.35 292.27C1536.66 283.436 1541.31 269.08 1541.31 249.202V121.84L1551.23 110.061H1556V247.362C1556 264.049 1553.18 277.423 1547.55 287.485C1542.17 297.546 1534.21 304.785 1523.68 309.202C1513.15 313.62 1500.29 315.828 1485.11 315.828ZM1448.75 157.178C1454.87 157.178 1459.53 155.583 1462.71 152.393C1465.89 148.957 1467.48 144.172 1467.48 138.037C1467.48 131.902 1465.77 127.239 1462.34 124.049C1459.16 120.613 1454.51 118.896 1448.39 118.896C1442.26 118.896 1437.49 120.613 1434.06 124.049C1430.88 127.239 1429.29 131.902 1429.29 138.037C1429.29 144.172 1431 148.957 1434.43 152.393C1437.86 155.583 1442.63 157.178 1448.75 157.178Z" fill="#E22B02"/>
</svg>
