<svg width="1468" height="380" viewBox="0 0 1468 380" fill="none" xmlns="http://www.w3.org/2000/svg">
<path d="M29.171 322.147V148.615H66.949V226.179C75.8688 222.498 84.1765 217.853 91.872 212.244C99.7424 206.459 106.738 200.061 112.86 193.05C118.981 186.039 124.228 178.764 128.601 171.227C132.973 163.69 136.121 156.152 138.045 148.615H181.332C178.884 157.204 175.124 165.793 170.052 174.382C165.154 182.796 159.295 190.771 152.474 198.308C145.653 205.846 138.395 212.594 130.699 218.554C123.179 224.338 115.571 228.896 107.875 232.226V236.17C115.921 236.17 123.091 237.134 129.388 239.062C135.859 240.815 141.543 243.707 146.44 247.739C151.512 251.595 155.972 256.415 159.82 262.2C163.668 267.984 167.078 274.908 170.052 282.971L183.956 322.147H141.193L132.011 290.596C129.563 282.007 126.327 275.171 122.304 270.088C118.282 264.829 113.122 261.06 106.826 258.782C100.529 256.328 92.3093 255.101 82.1652 255.101H66.949V322.147H29.171Z" fill="#001B95"/>
<path d="M207.442 322.147V134.154H245.482V177.274C245.482 180.78 245.308 184.461 244.958 188.317C244.783 192.174 244.346 196.117 243.646 200.149C243.121 204.005 242.509 207.949 241.81 211.981C241.285 216.012 240.673 220.044 239.973 224.075H245.745C248.193 215.136 251.254 207.423 254.927 200.938C258.775 194.452 263.672 189.457 269.618 185.951C275.565 182.27 283.086 180.429 292.18 180.429C308.271 180.429 320.339 186.126 328.384 197.52C336.43 208.738 340.452 226.003 340.452 249.316V322.147H302.412V255.101C302.412 240.377 300.226 229.509 295.853 222.498C291.656 215.311 285.272 211.718 276.702 211.718C269.706 211.718 263.934 213.821 259.387 218.028C254.84 222.235 251.429 227.932 249.155 235.118C246.882 242.13 245.57 250.018 245.22 258.782V322.147H207.442Z" fill="#001B95"/>
<path d="M405.215 325.828C397.52 325.828 390.699 324.338 384.752 321.358C378.805 318.203 374.171 313.734 370.848 307.949C367.525 302.165 365.863 294.978 365.863 286.389C365.863 278.852 367.262 272.542 370.061 267.458C373.034 262.375 377.319 258.256 382.916 255.101C388.512 251.946 395.421 249.316 403.641 247.213C411.861 245.11 421.218 243.269 431.712 241.691C437.309 240.815 441.856 240.026 445.354 239.325C449.027 238.449 451.738 237.134 453.487 235.381C455.236 233.453 456.11 230.736 456.11 227.23C456.11 222.323 454.361 218.116 450.864 214.61C447.366 211.104 441.856 209.351 434.336 209.351C429.264 209.351 424.541 210.228 420.169 211.981C415.971 213.734 412.298 216.363 409.15 219.869C406.177 223.374 403.991 227.844 402.592 233.278L369.274 223.024C371.372 215.837 374.346 209.614 378.193 204.356C382.216 199.097 387.026 194.715 392.622 191.209C398.219 187.528 404.603 184.812 411.774 183.059C418.945 181.306 426.728 180.429 435.123 180.429C448.59 180.429 459.521 182.62 467.916 187.003C476.486 191.209 482.87 197.87 487.067 206.985C491.265 215.925 493.364 227.493 493.364 241.691V265.355C493.364 271.49 493.451 277.713 493.626 284.023C493.976 290.333 494.326 296.731 494.676 303.216C495.2 309.527 495.725 315.837 496.25 322.147H462.931C462.232 317.765 461.532 312.769 460.833 307.16C460.308 301.376 459.871 295.592 459.521 289.807H454.799C452.35 296.468 448.852 302.515 444.305 307.949C439.757 313.383 434.161 317.765 427.515 321.096C421.043 324.251 413.61 325.828 405.215 325.828ZM421.218 298.484C424.541 298.484 427.864 297.87 431.187 296.643C434.685 295.416 438.009 293.751 441.157 291.648C444.48 289.369 447.453 286.564 450.076 283.234C452.875 279.904 455.149 276.135 456.898 271.928L456.373 249.842L462.407 251.157C459.259 253.436 455.586 255.276 451.388 256.678C447.191 257.905 442.818 258.869 438.271 259.571C433.898 260.272 429.526 261.06 425.154 261.937C420.781 262.813 416.846 263.953 413.348 265.355C410.025 266.757 407.314 268.685 405.215 271.139C403.291 273.418 402.329 276.661 402.329 280.868C402.329 286.301 404.078 290.596 407.576 293.751C411.074 296.906 415.622 298.484 421.218 298.484Z" fill="#001B95"/>
<path d="M526.409 322.147V184.11H557.366L557.104 225.39H562.351C564.625 215.399 567.86 207.073 572.058 200.412C576.255 193.751 581.502 188.755 587.799 185.425C594.27 182.095 601.878 180.429 610.623 180.429C626.539 180.429 638.606 186.039 646.827 197.257C655.222 208.475 659.419 226.091 659.419 250.105V322.147H621.379V254.312C621.379 239.588 619.193 228.896 614.82 222.235C610.623 215.399 604.414 211.981 596.194 211.981C589.198 211.981 583.339 214.172 578.616 218.554C573.894 222.936 570.309 228.72 567.86 235.907C565.586 242.918 564.362 250.806 564.187 259.571V322.147H526.409Z" fill="#001B95"/>
<path d="M754.213 322.147V148.615H791.991V226.179C800.911 222.498 809.218 217.853 816.914 212.244C824.784 206.459 831.78 200.061 837.902 193.05C844.023 186.039 849.27 178.764 853.642 171.227C858.015 163.69 861.163 156.152 863.087 148.615H906.374C903.926 157.204 900.165 165.793 895.093 174.382C890.196 182.796 884.337 190.771 877.516 198.308C870.695 205.846 863.437 212.594 855.741 218.554C848.221 224.338 840.612 228.896 832.917 232.226V236.17C840.962 236.17 848.133 237.134 854.429 239.062C860.901 240.815 866.585 243.707 871.482 247.739C876.554 251.595 881.014 256.415 884.862 262.2C888.71 267.984 892.12 274.908 895.093 282.971L908.998 322.147H866.235L857.053 290.596C854.604 282.007 851.369 275.171 847.346 270.088C843.323 264.829 838.164 261.06 831.868 258.782C825.571 256.328 817.351 255.101 807.207 255.101H791.991V322.147H754.213Z" fill="#001B95"/>
<path d="M932.484 322.147V134.154H969.737V322.147H932.484Z" fill="#001B95"/>
<path d="M1051.17 325.828C1035.08 325.828 1022.93 320.394 1014.71 309.527C1006.66 298.484 1002.64 281.744 1002.64 259.308V184.11H1040.42V254.575C1040.42 268.072 1042.43 278.151 1046.45 284.812C1050.47 291.297 1056.6 294.54 1064.82 294.54C1069.71 294.54 1074 293.313 1077.67 290.859C1081.34 288.405 1084.49 284.987 1087.12 280.605C1089.74 276.223 1091.66 271.052 1092.89 265.092C1094.29 259.132 1095.07 252.734 1095.25 245.898V184.11H1133.03V322.147H1102.59L1102.33 279.027H1097.61C1094.99 289.895 1091.66 298.834 1087.64 305.846C1083.79 312.682 1078.81 317.765 1072.69 321.096C1066.74 324.251 1059.57 325.828 1051.17 325.828Z" fill="#001B95"/>
<path d="M1199.94 325.828C1192.25 325.828 1185.43 324.338 1179.48 321.358C1173.53 318.203 1168.9 313.734 1165.58 307.949C1162.25 302.165 1160.59 294.978 1160.59 286.389C1160.59 278.852 1161.99 272.542 1164.79 267.458C1167.76 262.375 1172.05 258.256 1177.64 255.101C1183.24 251.946 1190.15 249.316 1198.37 247.213C1206.59 245.11 1215.95 243.269 1226.44 241.691C1232.04 240.815 1236.58 240.026 1240.08 239.325C1243.75 238.449 1246.47 237.134 1248.21 235.381C1249.96 233.453 1250.84 230.736 1250.84 227.23C1250.84 222.323 1249.09 218.116 1245.59 214.61C1242.09 211.104 1236.58 209.351 1229.06 209.351C1223.99 209.351 1219.27 210.228 1214.9 211.981C1210.7 213.734 1207.03 216.363 1203.88 219.869C1200.9 223.374 1198.72 227.844 1197.32 233.278L1164 223.024C1166.1 215.837 1169.07 209.614 1172.92 204.356C1176.94 199.097 1181.75 194.715 1187.35 191.209C1192.95 187.528 1199.33 184.812 1206.5 183.059C1213.67 181.306 1221.46 180.429 1229.85 180.429C1243.32 180.429 1254.25 182.62 1262.64 187.003C1271.21 191.209 1277.6 197.87 1281.8 206.985C1285.99 215.925 1288.09 227.493 1288.09 241.691V265.355C1288.09 271.49 1288.18 277.713 1288.35 284.023C1288.7 290.333 1289.05 296.731 1289.4 303.216C1289.93 309.527 1290.45 315.837 1290.98 322.147H1257.66C1256.96 317.765 1256.26 312.769 1255.56 307.16C1255.04 301.376 1254.6 295.592 1254.25 289.807H1249.53C1247.08 296.468 1243.58 302.515 1239.03 307.949C1234.49 313.383 1228.89 317.765 1222.24 321.096C1215.77 324.251 1208.34 325.828 1199.94 325.828ZM1215.95 298.484C1219.27 298.484 1222.59 297.87 1225.92 296.643C1229.41 295.416 1232.74 293.751 1235.88 291.648C1239.21 289.369 1242.18 286.564 1244.8 283.234C1247.6 279.904 1249.88 276.135 1251.63 271.928L1251.1 249.842L1257.13 251.157C1253.99 253.436 1250.31 255.276 1246.12 256.678C1241.92 257.905 1237.55 258.869 1233 259.571C1228.63 260.272 1224.25 261.06 1219.88 261.937C1215.51 262.813 1211.57 263.953 1208.08 265.355C1204.75 266.757 1202.04 268.685 1199.94 271.139C1198.02 273.418 1197.06 276.661 1197.06 280.868C1197.06 286.301 1198.81 290.596 1202.3 293.751C1205.8 296.906 1210.35 298.484 1215.95 298.484Z" fill="#001B95"/>
<path d="M1372.83 370C1365.84 370 1358.66 369.299 1351.32 367.897C1344.15 366.67 1337.33 364.654 1330.86 361.849C1324.56 359.22 1319.14 355.802 1314.59 351.595L1325.35 319.255C1330.94 325.039 1337.94 329.334 1346.33 332.138C1354.73 335.118 1363.04 336.608 1371.26 336.608C1380.53 336.608 1388.22 334.68 1394.34 330.824C1400.64 327.143 1405.36 321.446 1408.51 313.734C1411.83 305.846 1413.76 296.03 1414.28 284.286L1415.86 260.359H1410.09C1408.34 271.928 1405.45 281.393 1401.43 288.755C1397.58 296.117 1392.6 301.551 1386.47 305.057C1380.53 308.387 1373.44 310.053 1365.22 310.053C1355.25 310.053 1346.86 307.511 1340.04 302.428C1333.22 297.344 1328.06 289.72 1324.56 279.553C1321.24 269.386 1319.58 256.854 1319.58 241.954V184.11H1357.35V232.752C1357.35 249.053 1359.19 260.798 1362.86 267.984C1366.54 275.171 1372.13 278.764 1379.65 278.764C1383.68 278.764 1387.35 277.713 1390.67 275.609C1393.99 273.33 1396.79 270.088 1399.07 265.881C1401.52 261.674 1403.35 256.591 1404.58 250.631C1405.97 244.496 1406.67 237.572 1406.67 229.86V184.11H1444.45V285.6C1444.45 296.643 1443.49 306.722 1441.57 315.837C1439.64 324.776 1436.76 332.577 1432.91 339.237C1429.24 346.074 1424.51 351.77 1418.74 356.328C1412.97 360.885 1406.24 364.303 1398.54 366.582C1391.02 368.861 1382.45 370 1372.83 370Z" fill="#001B95"/>
<path d="M139.285 323.62V185.583C139.285 166.196 134.388 151.963 124.593 142.883C114.799 133.558 100.108 128.896 80.5189 128.896C62.6444 128.896 48.8099 132.699 39.0156 140.307C29.2213 147.914 24.569 159.202 25.0587 174.172L63.6238 190.736C65.5826 191.718 66.9294 192.699 67.6639 193.681C68.3985 194.663 68.7658 196.012 68.7658 197.73C68.7658 200.429 67.6639 202.515 65.4602 203.988C53.9519 204.233 45.0146 207.546 38.6483 213.926C32.5269 220.307 29.4662 229.386 29.4662 241.166V322.147H15.142V243.006C15.142 229.264 18.0803 218.589 23.9569 210.982C29.8335 203.374 39.0156 198.589 51.5033 196.626V195.521L11.1019 180.798C10.857 178.589 10.6121 176.503 10.3673 174.54C10.1224 172.331 10 170.368 10 168.65C10 152.945 16.4887 140.675 29.4662 131.84C42.4436 123.006 59.8285 118.589 81.6208 118.589C104.882 118.589 122.634 123.865 134.877 134.417C147.365 144.969 153.609 160.675 153.609 181.534V311.84L144.059 323.62H139.285Z" fill="#E22B02"/>
<path d="M93.1387 89.8773C89.9555 89.8773 86.4051 89.7546 82.4874 89.5092C78.5696 89.2638 74.7743 88.8957 71.1015 88.4049C67.1838 87.9141 63.6333 87.3006 60.4502 86.5644V79.9386C71.4688 79.4479 80.0388 76.5031 86.1602 71.1043C92.0368 65.7055 95.5872 60.0613 96.8115 54.1718L95.3424 53.4356C92.4041 55.6442 89.5882 57.362 86.8948 58.589C83.9565 59.5706 80.7734 60.0614 77.3453 60.0614C69.5099 60.0614 63.1436 57.8528 58.2465 53.4356C53.1045 49.0184 50.5335 43.0061 50.5335 35.3988C50.5335 27.3006 53.2269 21.0429 58.6138 16.6258C64.0006 12.2086 70.8566 10 79.1818 10C88.9761 10 96.3218 12.9448 101.219 18.8344C106.116 24.4785 108.565 32.0859 108.565 41.6564C108.565 49.0184 107.218 56.0123 104.525 62.638C101.586 69.2638 97.6685 74.2945 92.7714 77.7301L93.1387 79.5705C106.851 79.5705 119.094 77.2393 129.867 72.5767C140.396 67.6687 148.599 60.7976 154.475 51.9632C160.352 42.8834 162.923 32.454 162.188 20.6748C167.33 20.6748 170.881 21.6564 172.84 23.6196C174.554 25.5828 175.411 28.8957 175.411 33.5583C175.411 42.1472 172.35 50.7362 166.229 59.3251C159.862 67.9141 150.558 75.1534 138.315 81.0429C126.072 86.9325 111.013 89.8773 93.1387 89.8773ZM78.0799 50.8589C82.9771 50.8589 87.0172 49.5092 90.2004 46.8098C93.3835 43.865 94.9751 39.9386 94.9751 35.0307C94.9751 30.1227 93.3835 26.319 90.2004 23.6196C87.0172 20.6749 82.9771 19.2025 78.0799 19.2025C73.1828 19.2025 69.2651 20.6749 66.3268 23.6196C63.1436 26.319 61.552 30.1227 61.552 35.0307C61.552 39.9386 63.1436 43.865 66.3268 46.8098C69.2651 49.5092 73.1828 50.8589 78.0799 50.8589Z" fill="#E22B02"/>
<path d="M334.36 323.62V177.117C334.36 165.583 332.278 156.258 328.116 149.141C324.198 142.025 318.444 136.994 310.853 134.049C303.508 130.859 294.448 129.264 283.674 129.264C268.983 129.264 257.107 132.699 248.047 139.571C239.232 146.442 234.825 157.607 234.825 173.067C229.683 173.558 226.01 172.822 223.806 170.859C221.603 168.896 220.501 165.583 220.501 160.92C220.501 153.313 222.827 146.319 227.479 139.939C232.132 133.558 239.11 128.405 248.415 124.479C257.719 120.552 269.472 118.589 283.674 118.589C304.487 118.589 320.525 123.252 331.789 132.577C343.052 141.902 348.684 156.748 348.684 177.117V311.84L339.134 323.62H334.36Z" fill="#E22B02"/>
<path d="M452.141 323.252V169.018L452.508 169.386C450.304 171.595 447.611 173.313 444.428 174.54C441.49 175.767 438.062 176.38 434.144 176.38C425.574 176.38 418.473 173.804 412.841 168.65C407.209 163.497 404.394 156.38 404.394 147.301C404.394 138.221 407.209 131.227 412.841 126.319C418.473 121.411 426.064 118.957 435.613 118.957C445.162 118.957 452.631 121.411 458.017 126.319C463.649 131.227 466.465 138.466 466.465 148.037V304.479H467.567C475.402 295.89 483.727 287.669 492.542 279.816C501.602 271.963 511.396 265.092 521.925 259.202C532.699 253.313 543.962 249.386 555.716 247.423V131.84L565.632 120.061H570.407V246.687C584.854 246.687 595.995 250.245 603.83 257.362C611.665 264.479 615.583 274.54 615.583 287.546C615.583 293.436 614.481 299.202 612.278 304.847C610.319 310.491 607.013 315.153 602.361 318.834C597.709 322.27 591.465 323.988 583.629 323.988C575.304 323.988 568.571 321.656 563.429 316.994C558.287 312.086 555.716 304.724 555.716 294.908V258.466C544.207 260.184 533.066 264.479 522.292 271.35C511.764 277.975 501.847 285.951 492.542 295.276C483.238 304.601 474.545 313.926 466.465 323.252H452.141ZM434.878 166.81C447.856 166.81 454.345 160.429 454.345 147.669C454.345 134.908 447.978 128.528 435.246 128.528C429.124 128.528 424.35 130.245 420.922 133.681C417.494 136.871 415.78 141.534 415.78 147.669C415.78 153.804 417.371 158.589 420.554 162.025C423.982 165.215 428.757 166.81 434.878 166.81ZM584.731 314.417C591.342 314.417 596.117 311.84 599.055 306.687C602.238 301.288 603.83 294.908 603.83 287.546C603.83 277.239 601.014 269.632 595.382 264.724C589.996 259.571 581.67 256.994 570.407 256.994V297.117C570.407 302.27 571.631 306.442 574.08 309.632C576.528 312.822 580.079 314.417 584.731 314.417Z" fill="#E22B02"/>
<path d="M802.437 323.62V185.583C802.437 166.196 797.54 151.963 787.746 142.883C777.951 133.558 763.26 128.896 743.671 128.896C725.797 128.896 711.962 132.699 702.168 140.307C692.374 147.914 687.721 159.202 688.211 174.172L726.776 190.736C728.735 191.718 730.082 192.699 730.816 193.681C731.551 194.663 731.918 196.012 731.918 197.73C731.918 200.429 730.816 202.515 728.613 203.988C717.104 204.233 708.167 207.546 701.801 213.926C695.679 220.307 692.619 229.386 692.619 241.166V322.147H678.294V243.006C678.294 229.264 681.233 218.589 687.109 210.982C692.986 203.374 702.168 198.589 714.656 196.626V195.521L674.254 180.798C674.009 178.589 673.765 176.503 673.52 174.54C673.275 172.331 673.152 170.368 673.152 168.65C673.152 152.945 679.641 140.675 692.619 131.84C705.596 123.006 722.981 118.589 744.773 118.589C768.035 118.589 785.787 123.865 798.03 134.417C810.517 144.969 816.761 160.675 816.761 181.534V311.84L807.212 323.62H802.437Z" fill="#E22B02"/>
<path d="M927.728 323.988C918.178 323.988 910.71 321.411 905.323 316.258C899.936 310.859 897.243 303.252 897.243 293.436V255.89C897.243 241.166 899.569 229.386 904.221 220.552C909.118 211.472 915.607 204.847 923.688 200.675C932.013 196.258 941.317 194.049 951.601 194.049C962.13 194.049 971.802 196.258 980.617 200.675C989.432 204.847 996.9 210.491 1003.02 217.607C1009.39 224.724 1014.04 232.209 1016.98 240.061L1018.08 239.693V178.957C1018.08 162.025 1013.18 149.509 1003.39 141.411C993.594 133.067 979.393 128.896 960.783 128.896C943.888 128.896 930.666 132.454 921.117 139.571C911.812 146.687 907.16 158.098 907.16 173.804C901.773 174.049 897.977 173.313 895.774 171.595C893.57 169.632 892.468 166.196 892.468 161.288C892.468 153.926 894.917 146.933 899.814 140.307C904.711 133.681 912.179 128.405 922.218 124.479C932.502 120.307 945.235 118.221 960.416 118.221C984.167 118.221 1002.04 123.252 1014.04 133.313C1026.28 143.374 1032.4 158.712 1032.4 179.325V311.84L1022.85 323.62H1018.08V293.067C1018.08 275.399 1015.26 259.939 1009.63 246.687C1004 233.436 996.288 223.129 986.493 215.767C976.699 208.405 965.436 204.724 952.703 204.724C939.971 204.724 929.931 208.896 922.586 217.239C915.24 225.337 911.567 236.994 911.567 252.209V272.822C913.281 271.35 915.607 270.123 918.545 269.141C921.484 267.914 925.034 267.301 929.197 267.301C937.767 267.301 944.868 269.755 950.499 274.663C956.131 279.571 958.947 286.564 958.947 295.644C958.947 304.233 956.131 311.104 950.499 316.258C944.868 321.411 937.277 323.988 927.728 323.988ZM928.095 314.785C934.216 314.785 938.869 313.19 942.052 310C945.48 306.564 947.194 301.779 947.194 295.644C947.194 282.883 940.95 276.503 928.462 276.503C915.73 276.503 909.363 282.883 909.363 295.644C909.363 308.405 915.607 314.785 928.095 314.785Z" fill="#E22B02"/>
<path d="M972.115 89.8773C968.932 89.8773 965.381 89.7546 961.463 89.5092C957.546 89.2638 953.75 88.8957 950.078 88.4049C946.16 87.9141 942.609 87.3006 939.426 86.5644V79.9386C950.445 79.4479 959.015 76.5031 965.136 71.1043C971.013 65.7055 974.563 60.0613 975.788 54.1718L974.319 53.4356C971.38 55.6442 968.564 57.362 965.871 58.589C962.933 59.5706 959.749 60.0614 956.321 60.0614C948.486 60.0614 942.12 57.8528 937.223 53.4356C932.081 49.0184 929.51 43.0061 929.51 35.3988C929.51 27.3006 932.203 21.0429 937.59 16.6258C942.977 12.2086 949.833 10 958.158 10C967.952 10 975.298 12.9448 980.195 18.8344C985.092 24.4785 987.541 32.0859 987.541 41.6564C987.541 49.0184 986.194 56.0123 983.501 62.638C980.562 69.2638 976.645 74.2945 971.747 77.7301L972.115 79.5705C985.827 79.5705 998.07 77.2393 1008.84 72.5767C1019.37 67.6687 1027.57 60.7976 1033.45 51.9632C1039.33 42.8834 1041.9 32.454 1041.16 20.6748C1046.31 20.6748 1049.86 21.6564 1051.82 23.6196C1053.53 25.5828 1054.39 28.8957 1054.39 33.5583C1054.39 42.1472 1051.33 50.7362 1045.2 59.3251C1038.84 67.9141 1029.53 75.1534 1017.29 81.0429C1005.05 86.9325 989.989 89.8773 972.115 89.8773ZM957.056 50.8589C961.953 50.8589 965.993 49.5092 969.176 46.8098C972.36 43.865 973.951 39.9386 973.951 35.0307C973.951 30.1227 972.36 26.319 969.176 23.6196C965.993 20.6749 961.953 19.2025 957.056 19.2025C952.159 19.2025 948.241 20.6749 945.303 23.6196C942.12 26.319 940.528 30.1227 940.528 35.0307C940.528 39.9386 942.12 43.865 945.303 46.8098C948.241 49.5092 952.159 50.8589 957.056 50.8589Z" fill="#E22B02"/>
<path d="M1205.25 323.988C1195.45 323.988 1187.74 321.411 1182.11 316.258C1176.48 311.104 1173.66 304.233 1173.66 295.644C1173.66 286.564 1176.6 279.571 1182.48 274.663C1188.35 269.755 1195.33 267.301 1203.41 267.301C1207.57 267.301 1211.25 267.914 1214.43 269.141C1217.61 270.368 1220.06 271.84 1221.77 273.558L1221.41 274.294V178.957C1221.41 167.178 1219.08 157.73 1214.43 150.613C1210.02 143.252 1203.9 137.853 1196.06 134.417C1188.23 130.982 1179.05 129.264 1168.52 129.264C1160.44 129.264 1152.72 130.859 1145.38 134.049C1138.03 136.994 1132.03 141.779 1127.38 148.405C1122.73 154.785 1120.4 163.129 1120.4 173.436C1115.26 173.681 1111.47 172.945 1109.02 171.227C1106.81 169.264 1105.71 165.706 1105.71 160.552C1105.71 153.19 1108.28 146.319 1113.43 139.939C1118.81 133.558 1126.16 128.405 1135.46 124.479C1145.01 120.552 1155.79 118.589 1167.78 118.589C1189.58 118.589 1206.35 123.62 1218.1 133.681C1229.85 143.497 1235.73 158.466 1235.73 178.589V293.804C1235.73 303.62 1233.04 311.104 1227.65 316.258C1222.26 321.411 1214.8 323.988 1205.25 323.988ZM1204.51 314.785C1210.88 314.785 1215.65 313.19 1218.84 310C1222.02 306.564 1223.61 301.779 1223.61 295.644C1223.61 289.755 1222.02 285.092 1218.84 281.656C1215.65 278.221 1210.88 276.503 1204.51 276.503C1198.15 276.503 1193.37 278.221 1190.19 281.656C1187 285.092 1185.41 289.755 1185.41 295.644C1185.41 301.779 1187 306.564 1190.19 310C1193.62 313.19 1198.39 314.785 1204.51 314.785Z" fill="#E22B02"/>
<path d="M1387.11 325.828C1363.85 325.828 1346.22 320.92 1334.22 311.104C1322.23 301.043 1316.23 286.074 1316.23 266.196C1316.23 250.982 1319.53 239.325 1326.14 231.227C1332.76 223.129 1341.33 218.466 1351.85 217.239V216.135C1344.75 213.19 1338.39 209.018 1332.76 203.62C1327.37 198.221 1323.08 191.718 1319.9 184.11C1316.72 176.258 1315.13 167.791 1315.13 158.712C1315.13 145.951 1318.19 136.135 1324.31 129.264C1330.43 122.147 1339.12 118.589 1350.39 118.589C1360.42 118.589 1368.14 121.288 1373.52 126.687C1378.91 132.086 1381.6 139.08 1381.6 147.669C1381.6 156.748 1378.91 163.865 1373.52 169.018C1368.14 174.172 1360.91 176.748 1351.85 176.748C1347.45 176.748 1343.53 176.135 1340.1 174.908C1336.67 173.436 1333.73 171.35 1331.29 168.65L1330.18 169.386C1330.92 174.785 1333.25 180.92 1337.16 187.791C1341.08 194.663 1346.59 200.552 1353.69 205.46C1360.79 210.123 1368.99 212.454 1378.3 212.454H1392.62V222.393H1378.3C1361.16 222.393 1349.16 225.951 1342.3 233.067C1335.45 240.184 1332.02 251.104 1332.02 265.828C1332.02 275.153 1333.49 283.497 1336.43 290.859C1339.37 298.221 1344.75 304.11 1352.59 308.528C1360.67 312.945 1372.05 315.153 1386.75 315.153C1405.85 315.153 1420.05 310.859 1429.35 302.27C1438.66 293.436 1443.31 279.08 1443.31 259.202V131.84L1453.23 120.061H1458V257.362C1458 274.049 1455.18 287.423 1449.55 297.485C1444.17 307.546 1436.21 314.785 1425.68 319.202C1415.15 323.62 1402.29 325.828 1387.11 325.828ZM1350.75 167.178C1356.87 167.178 1361.53 165.583 1364.71 162.393C1367.89 158.957 1369.48 154.172 1369.48 148.037C1369.48 141.902 1367.77 137.239 1364.34 134.049C1361.16 130.613 1356.51 128.896 1350.39 128.896C1344.26 128.896 1339.49 130.613 1336.06 134.049C1332.88 137.239 1331.29 141.902 1331.29 148.037C1331.29 154.172 1333 158.957 1336.43 162.393C1339.86 165.583 1344.63 167.178 1350.75 167.178Z" fill="#E22B02"/>
</svg>
