<svg width="400" height="83" viewBox="0 0 400 83" fill="none" xmlns="http://www.w3.org/2000/svg">
<g clip-path="url(#clip0_3159_746)">
<path d="M58.1582 65.6347H22.8001L16.4585 82.7325H0L31.2113 0.267578H50.5961L81.8073 82.7325H64.496L58.1544 65.6347H58.1582ZM27.5534 53.0198H53.4011L42.9164 24.7624L40.4791 16.2719L38.0418 24.7624L27.5572 53.0198H27.5534Z" fill="#24272E"/>
<path d="M142.895 65.6347H107.537L101.196 82.7325H84.7373L115.952 0.267578H135.337L166.548 82.7325H149.233L142.892 65.6347H142.895ZM112.294 53.0198H138.142L127.658 24.7624L125.22 16.2719L122.783 24.7624L112.298 53.0198H112.294Z" fill="#24272E"/>
<path d="M211.174 58.7203L207.759 52.8991L204.223 58.7203L187.396 82.7325H170.081L199.223 40.1673L172.159 0.267578H191.179L205.811 20.7622L209.59 27.1903L213.369 20.7622L227.754 0.267578H244.944L218.001 39.9222L247.018 82.7287H227.997L211.171 58.7165L211.174 58.7203Z" fill="#24272E"/>
<path d="M257.381 0.267578H273.84V69.5142H312.245V82.7325H257.377V0.267578H257.381Z" fill="#24272E"/>
<path d="M319.049 55.6816C321.07 61.2162 324.307 66.4115 328.768 70.8528C333.23 75.2903 338.453 78.5138 344.021 80.5195L319.049 55.6816Z" fill="#24272E"/>
<path d="M316.551 41.9844C316.574 44.0768 316.756 46.1655 317.097 48.2353L351.504 82.4571C353.585 82.7964 355.685 82.9774 357.789 83L316.551 41.9844Z" fill="#24272E"/>
<path d="M317.677 31.8926C317.294 33.4949 317.01 35.1161 316.82 36.7486L363.053 82.7333C364.695 82.5448 366.325 82.262 367.936 81.8812L317.677 31.8926Z" fill="#24272E"/>
<path d="M320.611 23.6055C319.978 24.925 319.417 26.2747 318.932 27.6395L372.211 80.633C373.587 80.1504 374.941 79.5925 376.267 78.9628L320.611 23.6055Z" fill="#24272E"/>
<path d="M324.864 16.623C324.03 17.7277 323.257 18.8663 322.552 20.0275L379.865 77.0325C381.036 76.3274 382.177 75.5583 383.287 74.7326L324.864 16.623Z" fill="#24272E"/>
<path d="M330.239 10.7559C329.742 11.2045 329.249 11.6682 328.768 12.1471C328.287 12.6259 327.82 13.1122 327.369 13.6099L386.316 72.2398C386.813 71.7911 387.305 71.3274 387.787 70.8486C388.268 70.3697 388.734 69.8834 389.185 69.3857L330.239 10.7559Z" fill="#24272E"/>
<path d="M336.694 5.96875C335.523 6.67377 334.378 7.43912 333.268 8.26855L391.687 66.3744C392.521 65.2697 393.291 64.1311 394 62.9661L336.694 5.96875Z" fill="#24272E"/>
<path d="M344.347 2.37109C342.971 2.85368 341.618 3.41166 340.288 4.04128L395.94 59.3949C396.573 58.0753 397.134 56.7256 397.619 55.357L344.347 2.37109Z" fill="#24272E"/>
<path d="M353.505 0.267578C351.864 0.456087 350.234 0.735079 348.623 1.11587L398.878 51.1007C399.261 49.4984 399.545 47.8735 399.731 46.2448L353.505 0.267578Z" fill="#24272E"/>
<path d="M397.506 27.3183C395.489 21.7837 392.252 16.5884 387.787 12.1472C383.325 7.70969 378.102 4.4862 372.534 2.48047L397.502 27.3146L397.506 27.3183Z" fill="#24272E"/>
<path d="M365.055 0.546674C362.974 0.207359 360.87 0.022621 358.766 0L400 41.0119C399.977 38.9194 399.791 36.827 399.45 34.7572L365.055 0.546674Z" fill="#24272E"/>
</g>
<defs>
<clipPath id="clip0_3159_746">
<rect width="400" height="83" fill="white"/>
</clipPath>
</defs>
</svg>
